<svg width="17" height="20" viewBox="0 0 17 20" fill="none" xmlns="http://www.w3.org/2000/svg">
<rect width="17" height="20" fill="#E6E6E6"/>
<g clip-path="url(#clip0_460_39913)">
<rect width="1920" height="7174" transform="translate(-363 -26)" fill="white"/>
<rect width="1920" height="195" transform="translate(-299 -11)" fill="white"/>
<g filter="url(#filter0_d_460_39913)">
<rect width="1920" height="42" transform="translate(-299 -11)" fill="white"/>
<path d="M16 8.36364C16 14.0909 8.5 19 8.5 19C8.5 19 1 14.0909 1 8.36364C1 6.41068 1.79018 4.53771 3.1967 3.15676C4.60322 1.77581 6.51088 1 8.5 1C10.4891 1 12.3968 1.77581 13.8033 3.15676C15.2098 4.53771 16 6.41068 16 8.36364Z" stroke="#666666" stroke-linecap="round" stroke-linejoin="round"/>
<path d="M8.5 10.8182C9.88071 10.8182 11 9.71924 11 8.36363C11 7.00803 9.88071 5.90909 8.5 5.90909C7.11929 5.90909 6 7.00803 6 8.36363C6 9.71924 7.11929 10.8182 8.5 10.8182Z" stroke="#666666" stroke-linecap="round" stroke-linejoin="round"/>
</g>
</g>
<defs>
<filter id="filter0_d_460_39913" x="-299" y="-11" width="1920" height="43" filterUnits="userSpaceOnUse" color-interpolation-filters="sRGB">
<feFlood flood-opacity="0" result="BackgroundImageFix"/>
<feColorMatrix in="SourceAlpha" type="matrix" values="0 0 0 0 0 0 0 0 0 0 0 0 0 0 0 0 0 0 127 0" result="hardAlpha"/>
<feOffset dy="1"/>
<feColorMatrix type="matrix" values="0 0 0 0 0.9 0 0 0 0 0.9 0 0 0 0 0.9 0 0 0 1 0"/>
<feBlend mode="normal" in2="BackgroundImageFix" result="effect1_dropShadow_460_39913"/>
<feBlend mode="normal" in="SourceGraphic" in2="effect1_dropShadow_460_39913" result="shape"/>
</filter>
<clipPath id="clip0_460_39913">
<rect width="1920" height="7174" fill="white" transform="translate(-363 -26)"/>
</clipPath>
</defs>
</svg>
