<svg width="12" height="13" viewBox="0 0 12 13" fill="none" xmlns="http://www.w3.org/2000/svg">
<g id="Star 5">
<g id="Group">
<path id="Vector" d="M6.2066 9.44066L8.57098 10.9384C8.87323 11.1297 9.24823 10.845 9.1586 10.4922L8.47572 7.80529C8.45644 7.73044 8.45866 7.65168 8.48214 7.57804C8.50563 7.50441 8.54942 7.43889 8.60847 7.38904L10.7287 5.62466C11.007 5.39291 10.8637 4.93054 10.5056 4.90729L7.73697 4.72729C7.66243 4.722 7.59093 4.69565 7.53078 4.6513C7.47063 4.60695 7.42431 4.54643 7.39722 4.47679L6.36448 1.87654C6.33635 1.80264 6.28644 1.73903 6.22134 1.69416C6.15624 1.64928 6.07904 1.62524 5.99998 1.62524C5.92091 1.62524 5.84371 1.64928 5.77861 1.69416C5.71351 1.73903 5.6636 1.80264 5.63548 1.87654L4.60273 4.47679C4.57569 4.5465 4.5294 4.6071 4.46925 4.65152C4.4091 4.69594 4.33756 4.72234 4.26298 4.72766L1.49435 4.90766C1.1366 4.93054 0.992601 5.39291 1.27123 5.62466L3.39148 7.38941C3.45047 7.43924 3.49421 7.50469 3.51769 7.57825C3.54118 7.65181 3.54344 7.7305 3.52423 7.80529L2.89123 10.2972C2.7836 10.7205 3.23398 11.0622 3.59623 10.8323L5.79373 9.44066C5.85549 9.4014 5.92716 9.38054 6.00035 9.38054C6.07354 9.38054 6.14521 9.4014 6.20697 9.44066H6.2066Z" fill="#CCCCCC"/>
</g>
</g>
</svg>
